<svg xmlns="http://www.w3.org/2000/svg" width="18" height="18" viewBox="0 0 48 48">
  <path fill="#EA4335" d="M24 9.5c3.54 0 6 1.54 7.38 2.84l5.4-5.26C33.46 3.58 29.18 2 24 2 14.82 2 6.93 7.16 3.28 14.57l6.64 5.16C11.57 13.5 17.2 9.5 24 9.5z" />
  <path fill="#4285F4" d="M46.5 24.5c0-1.56-.14-3.06-.4-4.5H24v8.52h12.7c-.55 2.84-2.23 5.24-4.76 6.86l7.39 5.73C43.89 36.9 46.5 31.3 46.5 24.5z" />
  <path fill="#FBBC05" d="M9.92 28.27a14.5 14.5 0 0 1-.76-4.77c0-1.66.28-3.26.76-4.77L3.28 13.6A23.95 23.95 0 0 0 0 23.5c0 3.76.86 7.31 2.39 10.48l7.53-5.71z" />
  <path fill="#34A853" d="M24 47c6.48 0 11.92-2.14 15.89-5.82l-7.39-5.73c-2.06 1.38-4.7 2.2-8.5 2.2-6.8 0-12.53-4-15.08-9.66l-7.53 5.7C6.93 40.84 14.82 47 24 47z" />
  <path fill="none" d="M0 0h48v48H0z" />
</svg>

